<svg width="375" height="272" viewBox="0 0 375 272" fill="none" xmlns="http://www.w3.org/2000/svg">
<g opacity="0.2">
<path d="M301.044 38.2581L299.624 40.1153C267.18 15.4037 228.421 2.33775 187.521 2.33775C124.162 2.33775 65.8715 34.2159 31.5919 87.6157L29.6255 86.3484C64.3202 32.2713 123.354 -0.000137329 187.521 -0.000137329C228.924 -0.000137329 268.185 13.2406 301.044 38.2581Z" fill="white"/>
<path d="M375 187.489C375 290.88 290.885 375 187.5 375C84.115 375 0 290.88 0 187.489H2.33773C2.33773 289.591 85.404 372.64 187.478 372.64C289.574 372.64 372.619 289.569 372.619 187.489C372.619 156.638 364.885 126.092 350.246 99.174L352.3 98.0597C367.179 125.328 375 156.266 375 187.489Z" fill="white"/>
<path d="M356.91 187.488C356.91 206.06 353.916 224.304 348.039 241.74L343.604 240.232C349.328 223.277 352.234 205.535 352.234 187.466C352.234 102.625 288.678 32.1607 204.388 23.6176L204.869 18.9418C291.518 27.769 356.91 100.221 356.91 187.488Z" fill="white"/>
<path d="M161.195 24.8861C122.983 31.0258 87.9604 50.6465 62.5947 80.1649C36.9451 109.989 22.8312 148.116 22.8312 187.489C22.8312 219.28 31.8982 250.131 49.0708 276.722C69.0836 307.704 99.2339 331.345 133.972 343.297L132.443 347.732C96.7214 335.453 65.719 311.134 45.1381 279.278C27.4849 251.923 18.1558 220.197 18.1558 187.511C18.1558 147.002 32.6847 107.804 59.0553 77.1279C85.1419 46.7792 121.169 26.5904 160.474 20.2759L161.195 24.8861Z" fill="white"/>
<path d="M309.85 187.488C309.85 254.959 254.967 309.845 187.5 309.845C160.19 309.845 134.366 301.039 112.824 284.412L115.686 280.698C136.42 296.691 161.239 305.147 187.5 305.147C252.367 305.147 305.152 252.359 305.152 187.488C305.152 175.974 303.492 164.59 300.215 153.688L304.715 152.333C308.145 163.695 309.85 175.537 309.85 187.488Z" fill="white"/>
<path d="M277.733 104.854L274.281 108.022C252.039 83.7474 220.425 69.8293 187.522 69.8293C164.363 69.8293 141.947 76.559 122.699 89.2753L120.121 85.3642C140.133 72.1235 163.445 65.1317 187.544 65.1317C221.736 65.1536 254.617 79.6178 277.733 104.854Z" fill="white"/>
<path d="M95.3882 114.294C78.6744 135.292 69.8478 160.615 69.8478 187.49C69.8478 211.065 76.7955 233.81 89.9481 253.278L86.0591 255.9C72.3822 235.667 65.1724 212.005 65.1724 187.49C65.1724 159.522 74.3486 133.194 91.7396 111.367L95.3882 114.294Z" fill="white"/>
<path d="M288.832 187.489C288.832 203.963 284.79 220.328 277.143 234.792L275.067 233.7C282.539 219.563 286.494 203.592 286.494 187.511C286.494 143.091 256.628 103.849 213.849 92.0726L214.483 89.8221C258.266 101.839 288.832 142.02 288.832 187.489Z" fill="white"/>
<path d="M259.184 259.131C240.045 278.271 214.592 288.824 187.522 288.824C131.657 288.824 86.1909 243.378 86.1909 187.487C86.1909 131.618 131.657 86.1497 187.522 86.1497V88.4876C132.946 88.4876 88.5505 132.886 88.5505 187.465C88.5505 242.045 132.946 286.443 187.522 286.443C213.958 286.443 238.822 276.152 257.523 257.427L259.184 259.131Z" fill="white"/>
<path d="M250.531 187.49C250.531 222.252 222.26 250.525 187.499 250.525C152.739 250.525 124.468 222.252 124.468 187.49H129.165C129.165 219.652 155.339 245.827 187.499 245.827C219.66 245.827 245.834 219.652 245.834 187.49C245.834 155.327 219.66 129.152 187.499 129.152V124.454C222.26 124.476 250.531 152.749 250.531 187.49Z" fill="white"/>
<path d="M218.83 187.487C218.83 204.77 204.782 218.819 187.5 218.819V216.481C203.471 216.481 216.471 203.481 216.471 187.509C216.471 171.537 203.471 158.537 187.5 158.537C171.529 158.537 158.529 171.537 158.529 187.509C158.529 196.38 162.506 204.639 169.454 210.189L167.99 212.024C160.474 206.037 156.17 197.101 156.17 187.509C156.17 170.226 170.218 156.177 187.5 156.177C204.782 156.177 218.83 170.226 218.83 187.487Z" fill="white"/>
</g>
</svg>
